<svg width="20" height="20" viewBox="0 0 20 20" fill="none" xmlns="http://www.w3.org/2000/svg">
<path d="M13.1946 13.8217C14.9231 14.1748 16.7172 14.0122 18.354 13.354C17.684 15.0213 16.5303 16.45 15.0415 17.4562C13.5527 18.4624 11.7969 19.0001 9.99999 19C7.91037 18.9977 5.88662 18.2687 4.27565 16.9378C2.66467 15.6069 1.56683 13.757 1.17031 11.7054C0.773783 9.65374 1.10328 7.52805 2.10232 5.69272C3.10135 3.85739 4.7077 2.42673 6.64599 1.646C5.98779 3.28277 5.82514 5.0769 6.17827 6.80535C6.53139 8.53381 7.38472 10.1204 8.63217 11.3678C9.87962 12.6153 11.4662 13.4686 13.1946 13.8217Z" stroke="#3F3F46" stroke-width="2" stroke-linecap="round" stroke-linejoin="round"/>
</svg>
